HIERARCHY
ROOT Hips
{
  OFFSET 76.347 92.6806 -49.6304
  CHANNELS 6 Xposition Yposition Zposition Zrotation Xrotation Yrotation
  JOINT RightUpLeg
  {
    OFFSET -9.2536 -1.56971 -0.009835
    CHANNELS 3 Zrotation Xrotation Yrotation
    JOINT RightLeg
    {
      OFFSET 0.003613 -41.8721 0.033096
      CHANNELS 3 Zrotation Xrotation Yrotation
      JOINT RightFoot
      {
        OFFSET 0.190023 -41.7536 -0.162077
        CHANNELS 3 Zrotation Xrotation Yrotation
        End Site
        {
          OFFSET 0 -7.69 17.5
        }
      }
    }
  }
  JOINT LeftUpLeg
  {
    OFFSET 9.25993 -1.60807 -0.003591
    CHANNELS 3 Zrotation Xrotation Yrotation
    JOINT LeftLeg
    {
      OFFSET 0.056181 -41.8768 -0.046918
      CHANNELS 3 Zrotation Xrotation Yrotation
      JOINT LeftFoot
      {
        OFFSET 0.206009 -42.0177 -0.454554
        CHANNELS 3 Zrotation Xrotation Yrotation
        End Site
        {
          OFFSET 0 -7.69 17.5
        }
      }
    }
  }
  JOINT Spine
  {
    OFFSET 0.055174 14.3087 0.014143
    CHANNELS 3 Zrotation Xrotation Yrotation
    JOINT Spine1
    {
      OFFSET 0.013927 9.70629 0.00545
      CHANNELS 3 Zrotation Xrotation Yrotation
      JOINT Spine2
      {
        OFFSET 0.014023 10.1242 0.014512
        CHANNELS 3 Zrotation Xrotation Yrotation
        JOINT Spine3
        {
          OFFSET 0.012086 9.7191 0.009001
          CHANNELS 3 Zrotation Xrotation Yrotation
          JOINT Neck
          {
            OFFSET 0.131707 10.3859 0.054297
            CHANNELS 3 Zrotation Xrotation Yrotation
            JOINT Head
            {
              OFFSET -0.005552 9.48088 0.122183
              CHANNELS 3 Zrotation Xrotation Yrotation
              End Site
              {
                OFFSET 0 15.95 0
              }
            }
          }
          JOINT RightShoulder
          {
            OFFSET -3.20137 6.92944 0.018295
            CHANNELS 3 Zrotation Xrotation Yrotation
            JOINT RightArm
            {
              OFFSET -12.7595 0.009634 0.00435
              CHANNELS 3 Zrotation Xrotation Yrotation
              JOINT RightForeArm
              {
                OFFSET -26.5076 -0.004773 -0.015002
                CHANNELS 3 Zrotation Xrotation Yrotation
                JOINT RightHand
                {
                  OFFSET -26.002 -5.9e-05 -0.011656
                  CHANNELS 3 Zrotation Xrotation Yrotation
                  JOINT RightHandThumb1
                  {
                    OFFSET -2.48905 0.190105 3.12053
                    CHANNELS 3 Zrotation Xrotation Yrotation
                    JOINT RightHandThumb2
                    {
                      OFFSET -3.68274 0 0
                      CHANNELS 3 Zrotation Xrotation Yrotation
                      JOINT RightHandThumb3
                      {
                        OFFSET -2.55832 0 0
                        CHANNELS 3 Zrotation Xrotation Yrotation
                        End Site
                        {
                          OFFSET -2.194 0 0
                        }
                      }
                    }
                  }
                  JOINT RightInHandIndex
                  {
                    OFFSET -3.22368 0.508421 1.97842
                    CHANNELS 3 Zrotation Xrotation Yrotation
                    JOINT RightHandIndex1
                    {
                      OFFSET -5.21684 -0.091368 0.999158
                      CHANNELS 3 Zrotation Xrotation Yrotation
                      JOINT RightHandIndex2
                      {
                        OFFSET -3.61937 0 0
                        CHANNELS 3 Zrotation Xrotation Yrotation
                        JOINT RightHandIndex3
                        {
                          OFFSET -2.0521 0 0
                          CHANNELS 3 Zrotation Xrotation Yrotation
                          End Site
                          {
                            OFFSET -1.805 0 0
                          }
                        }
                      }
                    }
                  }
                  JOINT RightInHandMiddle
                  {
                    OFFSET -3.38211 0.517263 0.756737
                    CHANNELS 3 Zrotation Xrotation Yrotation
                    JOINT RightHandMiddle1
                    {
                      OFFSET -5.17411 -0.084 0.313895
                      CHANNELS 3 Zrotation Xrotation Yrotation
                      JOINT RightHandMiddle2
                      {
                        OFFSET -3.94947 0 0
                        CHANNELS 3 Zrotation Xrotation Yrotation
                        JOINT RightHandMiddle3
                        {
                          OFFSET -2.47579 0 0
                          CHANNELS 3 Zrotation Xrotation Yrotation
                          End Site
                          {
                            OFFSET -1.975 0 0
                          }
                        }
                      }
                    }
                  }
                  JOINT RightInHandRing
                  {
                    OFFSET -3.36516 0.537895 -0.128947
                    CHANNELS 3 Zrotation Xrotation Yrotation
                    JOINT RightHandRing1
                    {
                      OFFSET -4.63474 -0.022105 -0.478947
                      CHANNELS 3 Zrotation Xrotation Yrotation
                      JOINT RightHandRing2
                      {
                        OFFSET -3.44238 0 0
                        CHANNELS 3 Zrotation Xrotation Yrotation
                        JOINT RightHandRing3
                        {
                          OFFSET -2.3881 0 0
                          CHANNELS 3 Zrotation Xrotation Yrotation
                          End Site
                          {
                            OFFSET -1.857 0 0
                          }
                        }
                      }
                    }
                  }
                  JOINT RightInHandPinky
                  {
                    OFFSET -3.16105 0.469368 -1.20179
                    CHANNELS 3 Zrotation Xrotation Yrotation
                    JOINT RightHandPinky1
                    {
                      OFFSET -4.14105 -0.022105 -1.09053
                      CHANNELS 3 Zrotation Xrotation Yrotation
                      JOINT RightHandPinky2
                      {
                        OFFSET -2.75653 0 0
                        CHANNELS 3 Zrotation Xrotation Yrotation
                        JOINT RightHandPinky3
                        {
                          OFFSET -1.74189 0 0
                          CHANNELS 3 Zrotation Xrotation Yrotation
                          End Site
                          {
                            OFFSET -1.645 0 0
                          }
                        }
                      }
                    }
                  }
                }
              }
            }
          }
          JOINT LeftShoulder
          {
            OFFSET 3.20143 6.91127 -0.000395
            CHANNELS 3 Zrotation Xrotation Yrotation
            JOINT LeftArm
            {
              OFFSET 12.7779 -0.028682 -0.037301
              CHANNELS 3 Zrotation Xrotation Yrotation
              JOINT LeftForeArm
              {
                OFFSET 26.4982 -0.116492 -0.017681
                CHANNELS 3 Zrotation Xrotation Yrotation
                JOINT LeftHand
                {
                  OFFSET 26.0046 -0.058588 -0.01331
                  CHANNELS 3 Zrotation Xrotation Yrotation
                  JOINT LeftHandThumb1
                  {
                    OFFSET 2.48905 0.190105 3.12053
                    CHANNELS 3 Zrotation Xrotation Yrotation
                    JOINT LeftHandThumb2
                    {
                      OFFSET 3.68274 0 0
                      CHANNELS 3 Zrotation Xrotation Yrotation
                      JOINT LeftHandThumb3
                      {
                        OFFSET 2.55832 0 0
                        CHANNELS 3 Zrotation Xrotation Yrotation
                        End Site
                        {
                          OFFSET 2.194 0 0
                        }
                      }
                    }
                  }
                  JOINT LeftInHandIndex
                  {
                    OFFSET 3.22368 0.508421 1.97842
                    CHANNELS 3 Zrotation Xrotation Yrotation
                    JOINT LeftHandIndex1
                    {
                      OFFSET 5.21684 -0.091368 0.999158
                      CHANNELS 3 Zrotation Xrotation Yrotation
                      JOINT LeftHandIndex2
                      {
                        OFFSET 3.61937 0 0
                        CHANNELS 3 Zrotation Xrotation Yrotation
                        JOINT LeftHandIndex3
                        {
                          OFFSET 2.0521 0 0
                          CHANNELS 3 Zrotation Xrotation Yrotation
                          End Site
                          {
                            OFFSET 1.805 0 0
                          }
                        }
                      }
                    }
                  }
                  JOINT LeftInHandMiddle
                  {
                    OFFSET 3.38211 0.517263 0.756737
                    CHANNELS 3 Zrotation Xrotation Yrotation
                    JOINT LeftHandMiddle1
                    {
                      OFFSET 5.17411 -0.084 0.313895
                      CHANNELS 3 Zrotation Xrotation Yrotation
                      JOINT LeftHandMiddle2
                      {
                        OFFSET 3.94947 0 0
                        CHANNELS 3 Zrotation Xrotation Yrotation
                        JOINT LeftHandMiddle3
                        {
                          OFFSET 2.47579 0 0
                          CHANNELS 3 Zrotation Xrotation Yrotation
                          End Site
                          {
                            OFFSET 1.975 0 0
                          }
                        }
                      }
                    }
                  }
                  JOINT LeftInHandRing
                  {
                    OFFSET 3.36516 0.537895 -0.128947
                    CHANNELS 3 Zrotation Xrotation Yrotation
                    JOINT LeftHandRing1
                    {
                      OFFSET 4.63474 -0.022105 -0.478947
                      CHANNELS 3 Zrotation Xrotation Yrotation
                      JOINT LeftHandRing2
                      {
                        OFFSET 3.44238 0 0
                        CHANNELS 3 Zrotation Xrotation Yrotation
                        JOINT LeftHandRing3
                        {
                          OFFSET 2.3881 0 0
                          CHANNELS 3 Zrotation Xrotation Yrotation
                          End Site
                          {
                            OFFSET 1.857 0 0
                          }
                        }
                      }
                    }
                  }
                  JOINT LeftInHandPinky
                  {
                    OFFSET 3.16105 0.469368 -1.20179
                    CHANNELS 3 Zrotation Xrotation Yrotation
                    JOINT LeftHandPinky1
                    {
                      OFFSET 4.14105 -0.022105 -1.09053
                      CHANNELS 3 Zrotation Xrotation Yrotation
                      JOINT LeftHandPinky2
                      {
                        OFFSET 2.75653 0 0
                        CHANNELS 3 Zrotation Xrotation Yrotation
                        JOINT LeftHandPinky3
                        {
                          OFFSET 1.74189 0 0
                          CHANNELS 3 Zrotation Xrotation Yrotation
                          End Site
                          {
                            OFFSET 1.645 0 0
                          }
                        }
                      }
                    }
                  }
                }
              }
            }
          }
        }
      }
    }
  }
}
MOTION
Frames: 3
Frame Time: 0.00833333
2.336932499999999891e+03 9.132649999999999579e+01 -4.721509999999999252e+01 2.524620000000000175e+01 -2.331230000000000047e+01 -1.210010000000000048e+02 -3.734040000000000248e+00 -5.290720000000000312e+01 2.266319999999999979e+01 -6.621429999999998373e+00 1.551059999999999839e+01 6.428260000000000751e+00 1.126790000000000092e+01 2.179749999999999854e+00 5.232179999999998898e+01 1.127599999999999980e+01 -4.156510000000000105e+01 1.569730000000000025e+01 1.832570000000000032e+00 1.266990000000000016e+01 1.255500000000000149e+01 -1.458990000000000009e+01 3.526580000000000048e+00 1.067399999999999949e+02 -6.187229999999999563e+00 2.292800000000000082e+01 1.484949999999999903e+01 -9.775139999999998830e-01 4.783269999999999911e+00 3.448580000000001089e+00 -1.541209999999999747e+00 6.952120000000000744e+00 5.595049999999999635e+00 -2.706849999999999756e+00 -4.382860000000000644e-01 1.238519999999999843e+00 -4.123890000000000100e+01 -5.923140000000000960e+00 1.816750000000000043e+01 -2.818779999999999930e+01 4.938719999999999999e+00 1.241890000000000072e+01 9.159050000000000580e+00 -1.080109999999999815e+01 1.548850000000000016e+01 4.238830000000000098e+01 1.145959999999999823e+01 5.583870000000000289e+01 -5.130039999999999623e+01 -8.412739999999999441e+01 -5.427929999999999211e+01 1.243960000000000221e+01 -1.662040000000000362e+01 -4.449879999999999391e+00 2.818400000000000105e+01 1.072940000000000005e+01 1.915919999999999845e+01 8.074050000000003472e-16 0.000000000000000000e+00 -1.000000000000000000e+01 -3.807350000000000622e-15 -5.565969999999999999e-15 -1.000000000000000000e+01 3.975689999999998936e-15 0.000000000000000000e+00 6.361109999999999741e-15 1.998179999999999978e+01 8.718970000000000331e-01 2.396399999999999864e+00 2.400000000000000000e+01 4.770830000000000256e-15 9.541659999999997356e-15 2.000000000000000000e+01 -4.770830000000001045e-15 0.000000000000000000e+00 3.975689999999998936e-15 0.000000000000000000e+00 6.361109999999999741e-15 2.000000000000000000e+01 3.578119999999999853e-15 1.272219999999999993e-14 2.400000000000000000e+01 -3.180549999999999982e-15 6.361109999999999741e-15 2.000000000000000000e+01 0.000000000000000000e+00 -6.361109999999998952e-15 3.975689999999998936e-15 0.000000000000000000e+00 6.361109999999999741e-15 1.997479999999999833e+01 -1.025649999999999951e+00 -2.819380000000000219e+00 2.400000000000000000e+01 -1.590280000000000274e-15 0.000000000000000000e+00 2.000000000000000000e+01 3.180549999999999982e-15 1.272219999999999993e-14 3.975689999999998936e-15 0.000000000000000000e+00 6.361109999999999741e-15 1.978150000000000119e+01 -3.009479999999999933e+00 -8.305149999999999366e+00 2.400000000000000000e+01 -3.180550000000000771e-15 -1.272219999999999993e-14 2.000000000000000000e+01 3.180549999999999587e-15 -3.180549999999999982e-15 -2.459089999999999776e+01 -8.858819999999996142e+00 -1.521990000000000087e+01 -1.782310000000000016e+01 5.045159999999999911e+01 -8.812640000000001805e+01 3.713550000000012119e-01 -1.625169999999999959e+01 2.364869999999999806e+00 9.613109999999998934e+00 -7.487090000000000600e+01 -8.904249999999999332e+00 -2.818400000000000105e+01 1.072940000000000005e+01 -1.915919999999999845e+01 6.739649999999999775e-15 -1.590279999999999880e-15 1.000000000000000000e+01 3.510029999999999964e-15 -1.590279999999999880e-15 1.000000000000000000e+01 1.590280000000000471e-15 1.590279999999999880e-15 7.951389999999999226e-16 -1.998179999999999978e+01 8.718970000000000331e-01 -2.396399999999999864e+00 -2.400000000000000000e+01 0.000000000000000000e+00 -3.180550000000000771e-15 -2.000000000000000000e+01 3.975690000000001006e-16 -7.951389999999999226e-15 1.590280000000000471e-15 1.590279999999999880e-15 7.951389999999999226e-16 -2.000000000000000000e+01 -4.770830000000000256e-15 0.000000000000000000e+00 -2.400000000000000000e+01 -1.590279999999999880e-15 -3.180550000000000771e-15 -2.000000000000000000e+01 -3.975689999999998541e-16 -1.590280000000000274e-15 1.590280000000000471e-15 1.590279999999999880e-15 7.951389999999999226e-16 -1.997479999999999833e+01 -1.025649999999999951e+00 2.819380000000000219e+00 -2.400000000000000000e+01 3.180550000000000376e-15 0.000000000000000000e+00 -2.000000000000000000e+01 1.590279999999999880e-15 -3.180549999999999982e-15 1.590280000000000471e-15 1.590279999999999880e-15 7.951389999999999226e-16 -1.978150000000000119e+01 -3.009479999999999933e+00 8.305149999999999366e+00 -2.400000000000000000e+01 0.000000000000000000e+00 -6.361109999999999741e-15 -2.000000000000000000e+01 7.951389999999999226e-16 0.000000000000000000e+00
2.336945999999999913e+03 9.132460000000001799e+01 -4.726740000000000208e+01 2.520680000000000476e+01 -2.326790000000000092e+01 -1.212930000000000064e+02 -3.242269999999998653e+00 -5.284060000000000201e+01 2.312199999999999633e+01 -6.667270000000001140e+00 1.545969999999999978e+01 6.466370000000000395e+00 1.122160000000000046e+01 2.230749999999999567e+00 5.235689999999999600e+01 1.150730000000000253e+01 -4.147219999999999374e+01 1.584889999999999866e+01 1.870650000000000368e+00 1.278919999999999924e+01 1.249760000000000204e+01 -1.466479999999999961e+01 3.428370000000000140e+00 1.069339999999999975e+02 -6.246920000000000250e+00 2.292620000000000147e+01 1.490199999999999925e+01 -9.903450000000000308e-01 4.777009999999998868e+00 3.458130000000000148e+00 -1.560369999999999813e+00 6.939339999999999620e+00 5.609709999999998864e+00 -2.706859999999999822e+00 -4.461680000000000090e-01 1.240129999999999955e+00 -4.127669999999999817e+01 -6.028649999999998954e+00 1.819819999999999993e+01 -2.821420000000000528e+01 4.909720000000000084e+00 1.247389999999999866e+01 9.132809999999997430e+00 -1.080569999999999986e+01 1.535260000000000069e+01 4.318399999999999750e+01 1.095599999999999774e+01 5.550690000000000168e+01 -4.755489999999999640e+01 -8.458320000000000505e+01 -5.032109999999998706e+01 1.244989999999999952e+01 -1.652890000000000015e+01 -4.404930000000001122e+00 2.818400000000000105e+01 1.072940000000000005e+01 1.915919999999999845e+01 -1.054700000000000040e-14 -7.156249999999999484e-15 -1.000000000000000000e+01 -4.928979999999999877e-15 -1.192709999999999772e-14 -1.000000000000000000e+01 3.180549999999999982e-15 7.951389999999999226e-15 -3.180549999999999982e-15 1.998179999999999978e+01 8.718970000000000331e-01 2.396399999999999864e+00 2.400000000000000000e+01 -1.590279999999999880e-15 0.000000000000000000e+00 2.000000000000000000e+01 3.180549999999999982e-15 6.361109999999999741e-15 3.180549999999999982e-15 7.951389999999999226e-15 -3.180549999999999982e-15 2.000000000000000000e+01 4.820530000000000255e-15 6.361109999999998163e-15 2.400000000000000000e+01 7.951390000000000804e-15 0.000000000000000000e+00 2.000000000000000000e+01 -9.541660000000000512e-15 0.000000000000000000e+00 3.180549999999999982e-15 7.951389999999999226e-15 -3.180549999999999982e-15 1.997479999999999833e+01 -1.025649999999999951e+00 -2.819380000000000219e+00 2.400000000000000000e+01 3.180549999999999982e-15 -3.180550000000000771e-15 2.000000000000000000e+01 -6.361110000000000530e-15 0.000000000000000000e+00 3.180549999999999982e-15 7.951389999999999226e-15 -3.180549999999999982e-15 1.978150000000000119e+01 -3.009479999999999933e+00 -8.305149999999999366e+00 2.400000000000000000e+01 -1.113189999999999773e-14 6.361109999999998952e-15 2.000000000000000000e+01 3.180549999999999982e-15 0.000000000000000000e+00 -2.460389999999999944e+01 -8.880110000000001946e+00 -1.527410000000000068e+01 -1.795540000000000092e+01 5.041530000000000911e+01 -8.795990000000001885e+01 8.805659999999981835e-02 -1.530899999999999928e+01 1.781060000000000088e+00 1.287180000000000035e+01 -7.555889999999999418e+01 -5.959539999999998727e+00 -2.818400000000000105e+01 1.072940000000000005e+01 -1.915919999999999845e+01 8.567220000000000400e-15 6.361110000000000530e-15 1.000000000000000000e+01 9.128040000000000705e-15 3.180549999999999982e-15 1.000000000000000000e+01 0.000000000000000000e+00 -1.590280000000000274e-15 -7.951390000000003171e-16 -1.998179999999999978e+01 8.718970000000000331e-01 -2.396399999999999864e+00 -2.400000000000000000e+01 1.590280000000000274e-15 6.361109999999999741e-15 -2.000000000000000000e+01 -3.975690000000000513e-16 -1.590279999999999880e-15 0.000000000000000000e+00 -1.590280000000000274e-15 -7.951390000000003171e-16 -2.000000000000000000e+01 1.590280000000000668e-15 -2.385419999999999228e-15 -2.400000000000000000e+01 -1.590279999999999485e-15 -1.590279999999999485e-15 -2.000000000000000000e+01 -1.192710000000000008e-15 4.770830000000000256e-15 0.000000000000000000e+00 -1.590280000000000274e-15 -7.951390000000003171e-16 -1.997479999999999833e+01 -1.025649999999999951e+00 2.819380000000000219e+00 -2.400000000000000000e+01 -2.385419999999999622e-15 -1.590280000000000274e-15 -2.000000000000000000e+01 0.000000000000000000e+00 6.361109999999998952e-15 0.000000000000000000e+00 -1.590280000000000274e-15 -7.951390000000003171e-16 -1.978150000000000119e+01 -3.009479999999999933e+00 8.305149999999999366e+00 -2.400000000000000000e+01 -3.975689999999998936e-15 -7.951389999999999226e-16 -2.000000000000000000e+01 -1.192710000000000206e-15 1.272219999999999993e-14
2.336953700000000026e+03 9.132509999999999195e+01 -4.731820000000000448e+01 2.516560000000000130e+01 -2.322279999999999589e+01 -1.216079999999999899e+02 -2.730850000000000222e+00 -5.277609999999999957e+01 2.359209999999999496e+01 -6.707690000000000374e+00 1.541200000000000259e+01 6.515839999999999854e+00 1.117440000000000211e+01 2.285919999999999952e+00 5.239690000000000225e+01 1.173820000000000263e+01 -4.137470000000000425e+01 1.598530000000000229e+01 1.913820000000000299e+00 1.292520000000000024e+01 1.244990000000000130e+01 -1.473259999999999792e+01 3.345660000000000522e+00 1.071419999999999959e+02 -6.307699999999998752e+00 2.291450000000000031e+01 1.493619999999999948e+01 -1.004320000000000102e+00 4.769439999999999458e+00 3.462790000000000479e+00 -1.581580000000000208e+00 6.925310000000000521e+00 5.616770000000000707e+00 -2.706809999999999494e+00 -4.559720000000000439e-01 1.242659999999999876e+00 -4.131479999999999819e+01 -6.160639999999999894e+00 1.825299999999999656e+01 -2.824279999999999902e+01 4.878579999999999472e+00 1.255230000000000246e+01 9.098060000000000258e+00 -1.079800000000000182e+01 1.523129999999999917e+01 4.397729999999999961e+01 1.045389999999999908e+01 5.520000000000000995e+01 -4.339530000000000598e+01 -8.500880000000000791e+01 -4.593690000000000850e+01 1.242680000000000007e+01 -1.643550000000000111e+01 -4.365809999999999746e+00 2.818400000000000105e+01 1.072940000000000005e+01 1.915919999999999845e+01 -1.568270000000000218e-14 -7.951389999999999226e-16 -1.000000000000000000e+01 -2.613149999999998690e-15 -7.951390000000000804e-15 -1.000000000000000000e+01 7.951389999999999226e-16 3.180549999999999982e-15 -3.180549999999999982e-15 1.998179999999999978e+01 8.718970000000000331e-01 2.396399999999999864e+00 2.400000000000000000e+01 -1.590280000000000077e-15 -3.180549999999999193e-15 2.000000000000000000e+01 -6.361109999999998952e-15 -1.272220000000000308e-14 7.951389999999999226e-16 3.180549999999999982e-15 -3.180549999999999982e-15 2.000000000000000000e+01 3.329639999999999413e-15 6.361109999999998952e-15 2.400000000000000000e+01 -1.590280000000000274e-15 -3.180549999999999982e-15 2.000000000000000000e+01 -3.180549999999999982e-15 6.361109999999999741e-15 7.951389999999999226e-16 3.180549999999999982e-15 -3.180549999999999982e-15 1.997479999999999833e+01 -1.025649999999999951e+00 -2.819380000000000219e+00 2.400000000000000000e+01 1.590279999999999880e-15 1.272219999999999993e-14 2.000000000000000000e+01 0.000000000000000000e+00 3.180549999999999193e-15 7.951389999999999226e-16 3.180549999999999982e-15 -3.180549999999999982e-15 1.978150000000000119e+01 -3.009479999999999933e+00 -8.305149999999999366e+00 2.400000000000000000e+01 4.770829999999999467e-15 3.180550000000000771e-15 2.000000000000000000e+01 -6.361109999999999741e-15 -3.180549999999999982e-15 -2.462099999999999866e+01 -8.909940000000000637e+00 -1.530500000000000149e+01 -1.828290000000000504e+01 5.029129999999999967e+01 -8.749790000000000134e+01 -3.009999999999983800e-01 -1.426640000000000263e+01 1.082610000000000294e+00 1.653659999999999997e+01 -7.644360000000001776e+01 -2.522870000000000168e+00 -2.818400000000000105e+01 1.072940000000000005e+01 -1.915919999999999845e+01 -6.739649999999999775e-15 1.590279999999999880e-15 1.000000000000000000e+01 5.758219999999999129e-15 3.975689999999999725e-15 1.000000000000000000e+01 -1.590279999999999880e-15 0.000000000000000000e+00 -1.987849999999999356e-16 -1.998179999999999978e+01 8.718970000000000331e-01 -2.396399999999999864e+00 -2.400000000000000000e+01 7.951389999999999226e-16 -4.770830000000000256e-15 -2.000000000000000000e+01 -1.590280000000000077e-15 6.361109999999999741e-15 -1.590279999999999880e-15 0.000000000000000000e+00 -1.987849999999999356e-16 -2.000000000000000000e+01 3.180549999999999982e-15 1.590279999999999485e-15 -2.400000000000000000e+01 3.180549999999999982e-15 -1.590279999999999485e-15 -2.000000000000000000e+01 3.975690000000002486e-16 -3.180549999999999193e-15 -1.590279999999999880e-15 0.000000000000000000e+00 -1.987849999999999356e-16 -1.997479999999999833e+01 -1.025649999999999951e+00 2.819380000000000219e+00 -2.400000000000000000e+01 3.180549999999999982e-15 -1.590279999999999485e-15 -2.000000000000000000e+01 3.180549999999999982e-15 4.770830000000001045e-15 -1.590279999999999880e-15 0.000000000000000000e+00 -1.987849999999999356e-16 -1.978150000000000119e+01 -3.009479999999999933e+00 8.305149999999999366e+00 -2.400000000000000000e+01 1.590279999999999880e-15 -6.361109999999999741e-15 -2.000000000000000000e+01 0.000000000000000000e+00 0.000000000000000000e+00
